<?xml version="1.0" encoding="UTF-8" standalone="no"?>
<!DOCTYPE svg PUBLIC "-//W3C//DTD SVG 1.1//EN" "http://www.w3.org/Graphics/SVG/1.1/DTD/svg11.dtd">
<svg width="100%" height="100%" viewBox="0 0 3000 696" version="1.1" xmlns="http://www.w3.org/2000/svg" xmlns:xlink="http://www.w3.org/1999/xlink" xml:space="preserve" xmlns:serif="http://www.serif.com/" style="fill-rule:evenodd;clip-rule:evenodd;stroke-linejoin:round;stroke-miterlimit:2;">
    <g transform="matrix(4.16667,0,0,4.16667,0,0)">
        <path d="M11.786,116.775C20.245,116.775 28.283,115.005 35.936,111.482C45.852,106.827 53.584,99.904 59.218,90.64C64.314,82.184 66.856,72.929 66.856,62.752C66.847,47.911 61.707,35.392 51.403,25.011C46.304,19.922 40.308,15.946 33.367,13.107C26.447,10.265 19.262,8.851 11.786,8.851C10.952,8.851 9.565,8.889 7.667,8.978L7.667,116.64C9.565,116.729 10.947,116.775 11.786,116.775ZM0.522,120.803C0.073,119.642 0.042,116.752 0,111.06L0,14.552C0.042,8.869 0.163,5.757 0.864,4.222C2.238,2.321 4.859,1.625 8.563,1.611C8.672,1.611 8.843,1.611 8.97,1.625L10.294,1.625C19.436,1.685 27.306,2.84 33.889,5.11C45.301,9.012 54.713,15.753 62.048,25.289C70.367,36.05 74.517,48.578 74.517,62.752C74.517,77.02 70.367,89.586 62.048,100.331C56.967,106.917 50.771,112.212 43.444,116.246C36.121,120.272 28.263,122.763 19.821,123.642C17.291,123.889 13.468,123.987 8.34,123.987C4.436,123.987 1.662,123.142 0.522,120.803Z" style="fill:rgb(113,115,114);"/>
        <path d="M223.906,117.781L223.906,123.073L182.479,123.073C178.89,123.073 176.659,122.981 175.774,122.829C173.834,122.412 172.861,121.432 172.861,119.892C172.861,118.795 173.988,116.43 176.3,112.839L216.23,51.207L173.124,51.207L173.124,45.9L214.894,45.9C218.142,45.957 220.084,46.049 220.725,46.167C222.417,46.52 223.285,47.434 223.285,48.911C223.285,50.144 222.205,52.451 220.026,55.789L179.752,117.781L223.906,117.781Z" style="fill:rgb(113,115,114);"/>
        <path d="M182.48,123.987C178.85,123.987 176.658,123.921 175.577,123.708C173.451,123.337 171.885,121.904 171.95,119.892C171.997,118.275 173.209,116.025 175.522,112.33L214.525,52.132L172.2,52.132L172.2,44.992L214.916,44.992C218.183,45.052 220.064,45.115 220.912,45.282C222.849,45.589 224.278,47.029 224.214,48.911L224.214,48.897C224.152,50.629 222.981,52.856 220.797,56.287L181.436,116.87L223.908,116.87L223.908,117.781L223.908,116.87L224.823,116.87L224.823,123.987L182.48,123.987Z" style="fill:rgb(113,115,114);"/>
        <path d="M237.072,123.987L237.072,44.972L243.551,44.972L243.551,45.9L243.551,44.972L244.466,44.972L244.466,123.987L237.072,123.987Z" style="fill:rgb(113,115,114);"/>
        <path d="M323.159,123.073L323.159,122.154L323.159,123.073ZM316.677,123.987L316.677,80.083C316.677,74.989 316.435,71.188 316.03,68.759L316.03,68.748C315.626,66.326 314.72,63.901 313.343,61.438C311.516,57.996 308.978,55.298 305.66,53.319L305.66,53.313C302.304,51.342 298.664,50.359 294.621,50.336C286.366,50.385 280.434,53.793 276.344,60.829C274.932,63.341 273.966,65.964 273.426,68.691C272.885,71.415 272.59,75.259 272.59,80.175L272.59,123.987L265.192,123.987L265.192,79.095C265.192,69.648 266.624,62.346 269.648,57.18C272.084,53.026 275.568,49.672 280.058,47.132C284.721,44.526 289.651,43.21 294.804,43.21C301.603,43.21 307.717,45.36 313.063,49.603C317.176,52.925 320.065,56.864 321.693,61.413C323.291,65.921 324.074,72.288 324.074,80.595L324.074,123.987L316.677,123.987Z" style="fill:rgb(113,115,114);"/>
        <path d="M498.802,116.775C491.283,116.775 485.435,116.416 481.292,115.729C466.719,113.226 455.277,106.121 446.741,94.378C439.908,84.916 436.503,74.409 436.503,62.752C436.503,52.494 439.149,43.118 444.468,34.567C449.704,26.031 456.823,19.488 465.915,14.851C473.667,10.848 482.982,8.851 493.929,8.851L499.446,8.851L499.446,1.636L498.578,1.625C496.256,1.559 494.552,1.539 493.417,1.539C473.841,1.525 457.955,7.802 445.951,20.356C434.549,32.283 428.814,46.537 428.814,62.944C428.814,73.509 431.443,83.445 436.641,92.703C442.477,103.104 450.571,111.06 460.846,116.556C470.164,121.579 480.924,124.09 493.067,124.09C494.613,124.09 496.521,124.047 498.839,123.987L499.724,123.981L499.724,116.775L498.802,116.775Z" style="fill:rgb(0,125,139);"/>
        <path d="M525.236,61.792C519.547,68.231 516.731,75.675 516.719,84.31C516.731,94.378 520.398,102.707 527.791,109.5C534.201,115.387 541.396,118.275 549.527,118.281C559.791,118.263 568.137,114.485 574.887,106.827C580.576,100.4 583.409,93.039 583.409,84.589C583.386,74.446 579.731,66.033 572.312,59.102C566.172,53.448 558.808,50.508 550.05,50.359C540.22,50.37 532.041,54.134 525.236,61.792ZM549.453,125.404C542.924,125.424 536.652,123.774 530.647,120.533C523.659,116.815 518.263,111.523 514.464,104.73C510.907,98.452 509.146,91.648 509.146,84.31C509.134,71.854 513.835,61.421 523.133,53.339C530.592,46.782 539.603,43.394 550.039,43.21L550.068,44.138L550.068,43.21C562.017,43.196 572.163,47.675 580.324,56.482C587.415,64.182 590.989,73.644 590.989,84.681L590.989,84.675C591,96.961 586.317,107.27 577.068,115.281L577.074,115.281C569.319,122.022 560.101,125.404 549.487,125.404L549.453,125.404Z" style="fill:rgb(0,125,139);"/>
        <path d="M605.893,123.987L605.893,77.107C605.867,76.405 605.855,75.71 605.855,75.012C605.855,65.133 608.131,57.553 612.855,52.422L612.855,52.416C617.59,47.302 624.664,44.799 633.841,44.799C633.927,44.799 634.074,44.799 634.226,44.802L634.174,45.71L634.226,44.802L635.091,44.845L635.091,51.913L634.201,51.939C626.331,52.175 620.998,54.235 617.975,57.913C614.923,61.582 613.297,68.162 613.297,77.609L613.297,123.987L605.893,123.987Z" style="fill:rgb(0,125,139);"/>
        <path d="M678.99,50.359C668.933,50.37 660.563,54.299 653.638,62.315L653.65,62.315C648.225,68.521 645.57,75.627 645.57,83.787C645.57,94.571 649.32,103.184 656.897,109.85C663.411,115.485 670.694,118.275 678.892,118.275L678.895,118.275C688.919,118.275 697.198,114.574 703.91,107.106L703.916,107.106C709.713,100.653 712.598,93.157 712.607,84.396C712.598,74.038 708.673,65.53 700.754,58.606C694.594,53.275 687.394,50.534 678.99,50.336L678.99,50.359ZM643.783,105.201L644.553,104.718L643.783,105.201ZM638.071,167L638.071,91.192C638.071,84.146 638.45,78.67 639.278,74.684C640.093,70.688 641.617,66.788 643.846,63.01C647.512,56.68 652.736,51.713 659.385,48.187C665.482,44.88 672.033,43.21 679.073,43.21C691.06,43.196 701.189,47.584 709.16,56.31C716.379,64.125 720.011,73.509 720,84.31C720.011,96.608 715.509,106.922 706.542,115.011C698.916,121.947 689.782,125.424 679.259,125.424C665.002,125.447 653.604,119.502 645.456,107.802L645.456,167L638.071,167Z" style="fill:rgb(0,125,139);"/>
        <path d="M262.384,0.639L240.423,32.013L218.471,0.639L262.384,0.639Z" style="fill:rgb(0,125,139);"/>
        <path d="M413.801,81.138L413.816,81.138C413.816,81.138 413.801,81.12 413.801,81.106L413.801,81.138Z" style="fill:rgb(34,30,31);"/>
        <path d="M413.817,81.138L413.802,81.138L413.817,81.138Z" style="fill:rgb(34,30,31);"/>
        <path d="M345.854,80.207C346.797,71.918 350.323,64.967 356.551,59.243C363.01,53.31 370.518,50.356 379.198,50.356C385.156,50.356 390.675,51.839 395.877,54.818C401.897,58.275 406.467,63.128 409.632,69.446C411.319,72.728 412.36,76.291 412.804,80.207L345.854,80.207ZM413.817,81.138L413.801,81.138L413.801,81.106C413.801,81.12 413.817,81.129 413.817,81.138ZM419.287,74.716C416.942,66.263 412.872,59.318 407.011,53.968C399.21,46.811 389.902,43.196 379.274,43.21C371.89,43.21 364.975,45.064 358.614,48.721C352.9,52.051 348.201,56.536 344.604,62.183C340.261,68.984 338.083,76.365 338.083,84.31C338.083,95.062 341.872,104.531 349.387,112.586C357.24,121.116 367.216,125.427 379.114,125.424L379.142,125.424C390.816,125.424 400.788,121.24 408.832,112.945C412.922,108.735 416.04,103.253 418.294,96.685L410.612,96.682C407.629,104.167 402.809,109.807 396.027,113.709C390.725,116.752 385.195,118.272 379.274,118.281C373.37,118.272 367.864,116.786 362.707,113.804C357.746,111.014 353.726,107.141 350.573,102.184C347.751,97.688 346.106,92.775 345.657,87.347L412.38,87.347C415.649,87.33 417.608,87.177 418.83,86.514C420.108,85.721 420.453,84.166 420.458,82.198C420.458,80.195 420.074,77.701 419.287,74.716Z" style="fill:rgb(113,115,114);"/>
        <path d="M90.383,80.207C91.322,71.918 94.85,64.967 101.083,59.243C107.558,53.31 115.058,50.356 123.723,50.356C129.692,50.356 135.228,51.839 140.391,54.818C146.422,58.275 151.006,63.128 154.16,69.446C155.846,72.728 156.896,76.291 157.334,80.207L90.383,80.207ZM158.339,81.138L158.339,81.106L158.339,81.138ZM163.828,74.716C161.486,66.263 157.396,59.318 151.554,53.968C143.732,46.811 134.441,43.196 123.811,43.21C116.423,43.21 109.505,45.064 103.133,48.721C97.419,52.051 92.722,56.536 89.13,62.183C84.794,68.984 82.613,76.365 82.613,84.31C82.607,95.062 86.399,104.531 93.912,112.586C101.765,121.116 111.757,125.427 123.638,125.424L123.672,125.424C135.357,125.424 145.315,121.24 153.336,112.945C157.45,108.735 160.571,103.253 162.823,96.685L155.111,96.682C152.171,104.167 147.351,109.807 140.579,113.709C135.282,116.752 129.725,118.272 123.811,118.281C117.912,118.272 112.395,116.786 107.226,113.804C102.276,111.014 98.251,107.141 95.094,102.184C92.284,97.688 90.648,92.775 90.181,87.347L156.919,87.347C160.189,87.33 162.152,87.177 163.343,86.514C164.628,85.721 164.982,84.166 164.985,82.198C164.985,80.195 164.597,77.701 163.828,74.716Z" style="fill:rgb(113,115,114);"/>
    </g>
</svg>
